<?xml version="1.0" encoding="UTF-8"?>
<svg id="Camada_1" xmlns="http://www.w3.org/2000/svg" version="1.1" viewBox="0 0 512 512">
  <!-- Generator: Adobe Illustrator 30.3.0, SVG Export Plug-In . SVG Version: 2.1.3 Build 182)  -->
  <defs>
    <style>
      .st0 {
        fill: #6c8794;
      }

      .st1 {
        fill: #849aa5;
      }

      .st2 {
        fill: #f2f2f2;
      }

      .st3 {
        fill: #ee3238;
      }

      .st4 {
        fill: #4e626b;
      }
    </style>
  </defs>
  <rect class="st4" x="48.56" y="47" width="415" height="415" rx="35.61" ry="35.61"/>
  <path class="st1" d="M84.17,47h177.59v379.39c0,19.65-15.96,35.61-35.61,35.61H84.17c-19.65,0-35.61-15.96-35.61-35.61V82.61c0-19.65,15.96-35.61,35.61-35.61Z"/>
  <path class="st0" d="M48.56,255.84h213.19v206.17H84.17c-19.65,0-35.61-15.96-35.61-35.61v-170.56h0Z"/>
  <circle class="st3" cx="357.86" cy="359.17" r="133.15"/>
  <rect class="st2" x="111.16" y="145.8" width="88" height="15"/>
  <polygon class="st2" points="388.63 180.51 364.11 156.05 340.15 179.92 329.69 169.46 353.56 145.5 329.69 121.54 340.15 111.08 364.11 134.98 388.06 111.08 398.52 121.54 374.65 145.51 399.09 169.98 388.63 180.51"/>
  <polygon class="st2" points="162.69 400.27 147.66 400.39 147.66 366.43 113.69 366.43 113.69 351.42 147.66 351.42 147.66 317.45 162.66 317.45 162.66 351.42 196.63 351.42 196.63 366.43 162.66 366.42 162.69 400.27"/>
  <g>
    <rect class="st2" x="313.86" y="334" width="88" height="15"/>
    <rect class="st2" x="313.86" y="368" width="88" height="15"/>
  </g>
</svg>