<?xml version="1.0" encoding="UTF-8"?>
<svg id="Camada_1" xmlns="http://www.w3.org/2000/svg" version="1.1" viewBox="0 0 1200 1200">
  <!-- Generator: Adobe Illustrator 30.3.0, SVG Export Plug-In . SVG Version: 2.1.3 Build 182)  -->
  <path d="M838.78,913.82c-101.86,34.61-217.51,42.9-324.23,32.36-121.81-12.03-252.27-55.28-337.68-145.58-54.76-57.9-85.68-129.87-83.05-210.24-4-105.56,65.29-190.22,150.13-244.95,86.21-55.6,190.68-85.01,292.7-93.3,132.27-10.74,274.29,11.61,391.01,76.27,97.72,54.13,183.23,144.99,178.49,263.07,2.23,76.87-26.19,147.06-77.51,203.59-51.03,56.21-118.17,94.41-189.87,118.78ZM650.57,355c26.11,4.73,50.27,10.95,73.9,22.02,32.35,15.16,65.71,26.14,101.6,28.66,49.3,4.54,99.39-7.73,144.4-27.26-75.69-56.23-166.73-86.88-258.14-101.1-50.58-7.56-98.29-9.1-149.25-7.39-113.45,5.76-231.12,36.22-324.85,102.21,43.03,15.87,85.24,28.2,128.82,37.9,16.84,3.75,32.9,4.44,49.77,2.36l29.11-7.6c18.69-4.88,36.51-9.27,56.24-10.11,41.59-35.67,93.59-45.5,148.41-39.68ZM661.58,438.11c16.38,10.5,30.6,21.46,45.22,34.03l163.86,140.83c68.61-29.92,139.01-52.48,213-69.18-5.51-30.85-18.14-59.87-36.08-86.36-16.67-24.89-36.73-46.2-59.49-65.25-86.04,39.9-171.45,47.01-258.76,8.51-25.03-12.13-50.62-20.96-78.18-25.48-20.29-3.33-39.68-2.88-59.94.12-51.55,7.64-81.63,35.46-115.91,72.07l-35.13,37.89c-.6,1.32-1.39,3.53-1.03,4.55,3.08,8.68,45.17,20.34,73.81-1.55l37.57-28.72c14.05-10.74,27.77-21.24,44.1-27.66,22.76-8.95,46.05-7.13,66.96,6.22ZM756.27,726.98c10.08,9.56,33.8,5.26,46.73-9.32,8.72-9.83,8.95-24.36-.67-34.04l-68.08-68.55c-2.2-2.21-1.37-7.9.55-9.23s6.55-1.43,8.98.73l75.99,67.58c10.47,9.32,26.08,8.04,37.61,1.74,8.39-4.59,14.33-12.03,14.61-21.65.27-9.26-3.8-17.65-10.87-23.78l-109.57-94.85-78.91-65.91c-8.24-6.88-16.88-12.21-26.37-16.86-14.86-7.29-31.43-7.09-46.53-.36-13.16,5.86-24.98,13.32-36.42,22.11l-30.67,23.57c-9.9,7.61-20.52,14.5-32.53,18.32-22.57,7.18-59.53,2.65-75.63-14.53-6.08-6.49-8.6-18.33-1.9-25.62l53.92-58.69-33.69,8.39c-12.21,3.04-24.22,6.63-36.9,6.99-22.2.63-42.84-3.05-64.39-8.38-41.54-10.28-81.57-23.16-121.43-39.17-49.58,39.84-89.23,90.56-102.61,153.3l48.68,12.64c56.97,14.79,120.49,31.5,168.84,64.02,21.4-20.5,54.2-18.38,72.82,4.2,26.62-18.82,65.5-11.11,81.57,16.98,23.54-7.5,53.05,1.11,65.02,23.22,5.67,10.48,7.01,22.4,6.42,33.85,19.97-1.05,38.71,9.32,49.24,24.41,12.3,17.63,14,38.94,5.11,58.12,17.64,8.85,35.27,14.9,54.58,8.29,4.19-1.43,7.63-4.53,10.17-7.94l-43.08-47.71c-2.12-2.35-1.58-7.55.55-8.98,1.7-1.15,6-1.42,7.97.3l27.77,24.31c8.14,7.12,14.8,16.5,23.87,22.47,11.83,7.79,29.55,2.37,38.48-6.84,6.64-6.85,8.27-16.48,1.9-23.67l-50.3-56.71c-1.75-1.97-1.61-6.5-.29-8.04s6.1-2.46,7.89-.98l17.69,14.66,43.87,41.61ZM828.75,699.45c1,32.87-34.68,56.58-66.16,50.89-6.92,27.28-39.69,45.51-66.38,36.44-8.01,13.68-24.54,18.97-39.84,19.86-18.35,1.07-35.83-5.97-52.32-14.49-14.68,14.89-34.13,20.49-55.13,15.79-16.77-3.76-32.6-16.27-40.05-34.13-23.91,8.45-55.26-6.03-64.62-30.02-10.42,2.97-20.3,1.58-30.12-2.44-18.26-7.47-31.71-22.08-35.74-42.17-30.08,5.27-56.99-16.91-57.96-46.83-.24-7.52.91-13.88,3.49-20.81-17.37-11.86-35.78-20.25-55.3-27.89-30.16-11.79-60.24-21.16-91.83-28.65l-62.81-14.9-.06,34.77c3.41,57.88,34.31,112.35,75.13,152.51,9.96,9.81,19.27,18.69,30.3,27.4,101.56,80.13,237.22,114.12,364.82,117.05l30.62.13,14.72-.58c116.35-4.62,237.7-35.34,333.5-103.26,64.92-46.03,117.99-112.82,123.37-194.35.64-9.73,1-18.08-.28-28.6-68.26,15.74-136.22,36.23-201.55,63.06,14.74,24.69,4.72,53.67-20.13,65.88-10.94,5.37-22.5,6.94-35.69,5.36ZM557.71,712.51l-14.83,4.26c-1.14.33-4.29-.35-4.71-1.43-2.01-5.2,6.28-16.13,4.36-33.68-1.47-13.46-9.6-22.69-22.02-26.93-26.57-9.06-36.02,10.11-40.98,8.93-4.76-1.13-.75-19.56-16.05-29.18-21.85-13.73-48.94-3.73-61.72,19.57l-1.7-5.04c-.55-15.23-12.5-26.92-26.02-28.78-14.95-2.19-28.48,6.63-33.32,19.58-5.34,14.28.88,29.68,12.76,36.97,13.18,8.08,28.59,5.11,39.35-5.81,3.3,1.74,3.96,5.14,3.36,8.89-3.74,23.66,12.34,44.91,36.27,46.77,13.27,1.03,22.66-11.93,26.27-7.45,2.84,3.51-4.02,20.57,14.52,31.69,30.71,18.41,39.34-5.44,46.68-4.24,1.21.2,3.17,3,3.15,4.25-.33,23.26,18.63,41.02,41.28,40.19s39.57-20.59,37.72-42.66c-1.85-22.04-21.87-38.99-44.36-35.89Z"/>
</svg>