<?xml version="1.0" encoding="UTF-8"?>
<svg id="Camada_1" xmlns="http://www.w3.org/2000/svg" version="1.1" viewBox="0 0 1200 1200">
  <!-- Generator: Adobe Illustrator 30.3.0, SVG Export Plug-In . SVG Version: 2.1.3 Build 182)  -->
  <path d="M936.7,1008.89l-5.22,5.28c-2.55,2.58-5.16,5.06-8.61,6.78-11.28,8.26-24.58,12.35-38.71,13.65H310.33c-19.1-1.65-36.46-9.82-48.99-24.17-12.95-14.3-19.52-32.68-20.98-51.83l-.51-11.4-.62-13.5-.53-12.55-.65-13.51-.54-12.55-.65-13.51-.54-12.55-.65-13.51-.54-13.14-.65-13.51-.54-12.55-.65-13.51-.54-12.55-.65-13.51-.54-12.55-.65-13.51-.53-12.56-.65-14.09-.53-12.56-.65-13.51-.54-12.55-.65-13.51-.54-12.55-.65-13.51-.54-12.55-.65-13.51-.54-13.14-.65-13.51-.54-12.55-.65-13.51-.54-12.55-.65-13.51-.54-12.55-.65-13.51-.54-13.14-.65-13.51-.54-12.55-.65-13.51-.54-12.55-.65-13.51-.54-12.55-.66-13.51-.49-12c-.26-6.31-.33-12.8,4.22-17.86,1.99-2.21,5.99-5.36,9.75-5.37l181.06-.09c1.38-35.97,10.43-71.87,27.19-103.73,20.26-38.52,51.19-71.19,90.76-89.86,18.81-8.87,38.54-14.28,59.29-15.78h24.59c40.36,2.61,77.56,20.59,107.07,48.01,26.11,24.28,45.18,54.85,57.12,88.49,8.04,22.66,13.25,48.88,13.6,72.85l181.09.16c7.53,0,12.7,7.51,13.95,13.71.66,3.25.03,5.21-.08,8.17l-.39,10.92-.65,12.33-.59,11.85-.54,11.95-.65,12.33-.53,11.37-.66,12.91-.53,11.37-.65,12.33-.54,11.95-.65,12.33-.54,11.95-.65,12.33-.53,11.37-.66,12.91-.53,11.37-.65,12.33-.54,11.95-.65,12.33-.54,11.95-.65,12.33-.53,11.37-.66,12.91-.53,11.37-.65,12.33-.54,11.95-.65,12.33-.53,11.37-.66,12.91-.53,11.38-.66,12.91-.53,11.37-.65,12.33-.54,11.95-.65,12.33-.53,11.37-.66,12.91-.53,11.37-.65,12.33-.54,11.95-.65,12.33-.54,11.95-.65,12.33-.53,11.37-.65,12.91-.51,11.36-.58,9.52c-1.12,18.24-7.95,35.37-20.37,49.11ZM737.45,374.79c.55-3.08-.12-5.78-.36-8.91-3.35-43.68-21.79-87.21-54.54-116.67-12.62-11.35-26.77-20.24-42.69-25.99-41.05-14.85-84.5-5.75-117.86,21.86-34.68,28.7-53.93,70.92-58.72,115.42-.33,3.02-.56,5.38-.51,8.45.03,1.82-1.18,3.83-.39,5.84h275.06ZM666.5,909.61c13.41-4.94,25.44-11.95,36.18-21.26l12.09-12.15c6.05-6.08,10.05-13.35,14.04-20.97,7.45-14.22,11.14-29.64,12.49-45.67,2.33-27.65-5.39-52.79-23.83-73.48-29.39-32.98-81.38-53.19-123.08-66.99-24.2-8.01-52.07-19.76-69.09-38.64-11.42-12.67-17.22-28.3-15.5-45.33,1.62-16.03,9.9-30.91,21.76-41.47,15.3-13.63,34.83-20.59,55.19-22.32l18.09.03c34.31,2.05,66.84,13.22,95.09,32.56,2.45,1.68,5.65.99,7.07-1.29l13.86-22.21c1.14-1.82,1.76-3.65,1.24-5.88-.32-1.36-1.7-3.09-3.42-4.11l-20.13-11.95c-25.71-13.55-53.96-21.47-82.93-24.55l-7.17-.56-26.44.09c-32.89,2.57-65.91,16.29-88.12,40.86-14.61,16.16-24.05,36.13-26.04,57.92l.03,20.46c1.77,20.02,10.46,38.21,23.66,53.14l11.86,11.86c9.3,7.8,18.87,15.12,29.95,20.39,28.18,13.41,57.18,23.51,86.67,33.55,15.56,5.3,29.95,12.55,43.33,21.74,9.84,6.76,18.09,14.63,24.97,24.21,18.38,25.62,16.16,58.32-4.93,81.42-18.63,20.41-47.29,29.17-74.55,31.32l-19.16.04c-39.74-3.28-78.31-20.15-108.89-45.52-2.37-1.97-5-3.9-8.28-2.45-1.97.87-3.09,3.29-4.27,5.03l-13.46,19.77c-.92,1.36-2.95,3.67-2.28,5.45,1.14,2.67,3.86,4.84,6.32,6.65,12.06,8.87,23.82,17.87,37.26,24.8,29.76,15.34,62.06,23.74,95.36,25.92l26.97-.04c16.62-1.16,32.52-4.63,48.1-10.38Z"/>
</svg>