<svg width="131" height="76" viewBox="0 0 131 76" fill="none" xmlns="http://www.w3.org/2000/svg">
<g clip-path="url(#clip0_174_4403)">
<path fill-rule="evenodd" clip-rule="evenodd" d="M6.71803 0.5H124.172C127.589 1.26748 129.837 3.43609 130.739 7.21827V68.8094C129.848 72.5477 127.641 74.7088 124.291 75.5H6.59961C3.20734 74.6994 0.987647 72.4941 0.118774 68.6703V7.35737C0.99788 3.48924 3.25894 1.27698 6.71803 0.5ZM8.61168 2.31396H122.277C125.584 3.04439 127.76 5.10801 128.632 8.70722V67.3189C127.77 70.8764 125.634 72.9331 122.392 73.686H8.49739C5.21415 72.9241 3.06633 70.8255 2.22541 67.1867V8.83975C3.07607 5.15885 5.26432 3.05326 8.61168 2.31396Z" fill="#E30016"/>
<path fill-rule="evenodd" clip-rule="evenodd" d="M8.61162 2.31396H122.277C125.584 3.0444 127.76 5.10802 128.632 8.70723V67.3189C127.77 70.8764 125.634 72.933 122.392 73.686H8.49733C5.21409 72.9241 3.06629 70.8255 2.22534 67.1867V8.83976C3.07602 5.15886 5.26425 3.05327 8.61162 2.31396Z" fill="#E30016"/>
<path fill-rule="evenodd" clip-rule="evenodd" d="M9.99099 72.5233C6.72474 71.8111 4.59027 69.7826 3.76013 66.2372V55.6628C10.1968 52.2763 19.2505 49.4762 30.0507 47.5316C40.8509 45.5871 53.0343 44.5636 65.4295 44.5594C77.8289 44.5652 90.015 45.5911 100.815 47.5384C111.616 49.4856 120.667 52.2887 127.097 55.6779V66.3641C126.246 69.8308 124.124 71.8198 120.897 72.5233H9.99099Z" fill="url(#paint0_linear_174_4403)"/>
<path fill-rule="evenodd" clip-rule="evenodd" d="M9.99099 3.55237C6.72474 4.26454 4.59027 6.2931 3.76013 9.83845V20.4128C10.1968 23.7993 19.2505 26.5995 30.0507 28.544C40.8509 30.4886 53.0343 31.5121 65.4295 31.5162C77.8289 31.5104 90.015 30.4846 100.815 28.5374C111.616 26.5901 120.667 23.787 127.097 20.3978V9.71155C126.246 6.24489 124.124 4.25587 120.897 3.55237H9.99099Z" fill="url(#paint1_linear_174_4403)"/>
<path fill-rule="evenodd" clip-rule="evenodd" d="M8.61162 2.31396H122.277C125.584 3.0444 127.76 5.10802 128.632 8.70723V67.3189C127.77 70.8764 125.634 72.933 122.392 73.686H8.49733C5.21409 72.9241 3.06629 70.8255 2.22534 67.1867V8.83976C3.07602 5.15886 5.26425 3.05327 8.61162 2.31396ZM10.2367 3.62826H120.651C123.864 4.33179 125.977 6.31939 126.824 9.78605V66.2392C125.987 69.6655 123.912 71.6465 120.762 72.3717H10.1257C6.93644 71.6379 4.84999 69.6165 4.03324 66.1118V9.91373C4.8595 6.36827 6.98526 4.34026 10.2367 3.62826Z" fill="white"/>
<path fill-rule="evenodd" clip-rule="evenodd" d="M97.3495 38.5766V49.1101C95.6747 49.7284 94.0637 50.0325 92.5371 50.0325C88.785 50.0325 85.6155 48.628 83.0185 45.8294C80.4216 43.0205 79.1179 39.5932 79.1179 35.5369C79.1179 31.156 80.6761 27.4665 83.8029 24.4584C86.9298 21.4503 90.7775 19.9412 95.3355 19.9412C97.7523 19.9412 100.074 20.4231 102.289 21.3874C104.504 22.3413 106.236 23.6376 107.504 25.2549C109.605 27.933 110.673 31.8183 110.673 36.9206V51.4209C110.673 56.8794 109.104 61.3161 105.967 64.7214C102.831 68.1268 98.7487 69.8362 93.7139 69.8362C92.1769 69.8362 90.2477 69.4589 87.9051 68.7043V58.265C89.4211 59.0825 90.9472 59.4913 92.5052 59.4913C94.5937 59.4913 96.2088 58.8118 97.3495 57.4475C98.4858 56.0887 99.056 54.1352 99.056 51.5987V35.6628C99.056 32.4451 97.7417 30.8414 95.1128 30.8414C93.9895 30.8414 93.0141 31.2712 92.1769 32.1202C91.3394 32.9691 90.9155 33.9439 90.9155 35.0442C90.9155 36.2184 91.3183 37.1827 92.1131 37.9687C92.9082 38.7442 93.9046 39.1321 95.0814 39.1321C95.8657 39.1321 96.6288 38.9434 97.3495 38.5766Z" fill="white"/>
<path fill-rule="evenodd" clip-rule="evenodd" d="M62.3551 37.0989L73.8768 36.6691C73.5483 41.092 71.8844 44.729 68.8846 47.5798C65.8742 50.4203 62.2277 51.8456 57.9136 51.8456C53.3662 51.8456 49.5185 50.2841 46.381 47.1501C43.2434 44.0164 41.6747 40.1803 41.6747 35.6314C41.6747 31.3132 43.2541 27.6133 46.4233 24.5423C49.5928 21.4712 53.3982 19.9412 57.8288 19.9412C61.6977 19.9412 65.1109 21.1464 68.0681 23.5675C71.0362 25.9784 72.8698 29.0596 73.6015 32.8016L61.8355 33.2312C60.8179 31.9212 59.5355 31.2712 57.9774 31.2712C56.6522 31.2712 55.5604 31.7009 54.7125 32.5603C53.8645 33.4198 53.4405 34.5099 53.4405 35.8201C53.4405 37.1512 53.8962 38.2621 54.7973 39.1636C55.6984 40.065 56.8218 40.5156 58.1679 40.5156C60.129 40.5156 61.5282 39.373 62.3551 37.0989Z" fill="white"/>
<path fill-rule="evenodd" clip-rule="evenodd" d="M20.1842 9.28174H32.7874V34.185C32.7874 36.1241 33.1056 37.4237 33.7415 38.0734C34.367 38.7129 35.6177 39.0378 37.4832 39.0378H38.1404V51.196H34.7802C30.1799 51.196 26.5972 49.8754 24.0319 47.2237C21.4668 44.5718 20.1842 40.893 20.1842 36.1765V9.28174Z" fill="white"/>
<path d="M26.239 61.7551V63.8223H24.4321C24.1866 63.8223 24.0116 63.8585 23.9071 63.9311C23.8071 64.0037 23.7571 64.1261 23.7571 64.2983C23.7571 64.4932 23.8093 64.6224 23.9139 64.6859C24.0184 64.7448 24.2321 64.7743 24.5548 64.7743H26.4163V67.4262H24.2412C23.2184 67.4262 22.4366 67.1837 21.8956 66.6987C21.3547 66.209 21.0842 65.504 21.0842 64.5838V60.9459C21.0842 60.0574 21.3388 59.3684 21.8479 58.8788C22.3616 58.3892 23.082 58.1444 24.0093 58.1444H26.4163V60.8099H24.6503C24.173 60.8099 23.9343 60.9641 23.9343 61.2723C23.9343 61.4537 23.9912 61.5807 24.1048 61.6531C24.2184 61.7211 24.4207 61.7551 24.7116 61.7551H26.239Z" fill="white"/>
<path d="M30.3709 58.1444V67.4261H27.8208V58.1444H30.3709Z" fill="white"/>
<path d="M38.5395 64.4477H34.6734C34.6144 64.2528 34.5848 64.0737 34.5848 63.9105C34.5848 63.6839 34.6257 63.4618 34.7075 63.2442H36.0031C35.9121 62.741 35.628 62.4894 35.1507 62.4894C34.8326 62.4894 34.5734 62.6254 34.3734 62.8974C34.1734 63.1648 34.0734 63.5094 34.0734 63.9309C34.0734 64.3707 34.1689 64.7265 34.3598 64.9985C34.5553 65.2705 34.8098 65.4065 35.1235 65.4065C35.378 65.4065 35.6235 65.2796 35.8599 65.0258L37.3122 66.7665C36.6349 67.2968 35.8826 67.5621 35.0553 67.5621C34.0462 67.5621 33.1984 67.2244 32.512 66.5489C31.8256 65.8735 31.4824 65.0371 31.4824 64.0398C31.4824 63.047 31.8279 62.2083 32.5188 61.5238C33.2143 60.8393 34.0666 60.4971 35.0757 60.4971C36.0621 60.4971 36.8895 60.8325 37.5577 61.5034C38.2304 62.1698 38.5668 62.9926 38.5668 63.9718C38.5668 64.0716 38.5577 64.2302 38.5395 64.4477Z" fill="white"/>
<path d="M41.8737 58.1444V60.742H43.0192V63.4279H41.8737C41.8737 63.9674 41.9578 64.3391 42.126 64.5431C42.2987 64.7471 42.6124 64.849 43.0669 64.849V67.5214C42.9351 67.5252 42.8374 67.527 42.7737 67.527C42.1964 67.527 41.651 67.3933 41.1373 67.1258C40.6282 66.8583 40.2191 66.4957 39.91 66.0378C39.5191 65.453 39.3236 64.6779 39.3236 63.7123V58.1433L41.8737 58.1444Z" fill="white"/>
<path d="M47.9967 60.5787V63.2987C47.8194 63.1989 47.658 63.149 47.5125 63.149C47.0489 63.149 46.8171 63.5026 46.8171 64.2098V67.4261H44.267V63.7202C44.267 62.741 44.5352 61.9613 45.0715 61.3811C45.6079 60.7963 46.3239 60.5039 47.2194 60.5039C47.4194 60.5039 47.6785 60.5288 47.9967 60.5787Z" fill="white"/>
<path d="M51.965 60.5039C52.9287 60.5039 53.7537 60.8507 54.4401 61.5443C55.1311 62.2334 55.4765 63.0607 55.4765 64.0263C55.4765 65.0055 55.1265 65.8395 54.4265 66.5286C53.731 67.2176 52.8901 67.5621 51.9037 67.5621C50.9173 67.5621 50.074 67.2176 49.374 66.5286C48.674 65.835 48.324 65.0009 48.324 64.0263C48.324 63.0335 48.674 62.1993 49.374 61.5239C50.074 60.8439 50.9377 60.5039 51.965 60.5039ZM51.8968 63.0131C51.6241 63.0131 51.3923 63.1128 51.2014 63.3123C51.0104 63.5072 50.915 63.7474 50.915 64.033C50.915 64.3141 51.0104 64.5544 51.2014 64.7539C51.3968 64.9533 51.6286 65.053 51.8968 65.053C52.1696 65.053 52.4014 64.9533 52.5923 64.7539C52.7878 64.5544 52.8855 64.3141 52.8855 64.033C52.8855 63.7474 52.7901 63.5072 52.5991 63.3123C52.4082 63.1128 52.1741 63.0131 51.8968 63.0131Z" fill="white"/>
<path d="M58.4289 64.3798C58.8743 64.3798 59.2562 64.5407 59.5744 64.8626C59.8971 65.1844 60.0585 65.5674 60.0585 66.0117C60.0585 66.456 59.8994 66.8345 59.5812 67.1473C59.263 67.4555 58.8789 67.6097 58.4289 67.6097C57.9607 67.6097 57.5743 67.46 57.2697 67.1609C56.9697 66.8571 56.8197 66.4719 56.8197 66.005C56.8197 65.5516 56.9765 65.1686 57.2902 64.8558C57.6038 64.5385 57.9834 64.3798 58.4289 64.3798Z" fill="white"/>
<path d="M66.0042 64.305L68.5339 64.2098C68.4611 65.1889 68.0952 65.9936 67.4361 66.6237C66.777 67.2538 65.9747 67.5689 65.0292 67.5689C64.0291 67.5689 63.1837 67.2221 62.4927 66.5286C61.8063 65.835 61.4631 64.985 61.4631 63.9786C61.4631 63.0221 61.8109 62.2039 62.5064 61.5239C63.2018 60.8439 64.036 60.5039 65.0087 60.5039C65.8588 60.5039 66.6088 60.7713 67.2588 61.3063C67.9088 61.8412 68.3134 62.5234 68.4725 63.353L65.8883 63.4482C65.6656 63.1581 65.3837 63.0131 65.0428 63.0131C64.7519 63.0131 64.5133 63.1083 64.3269 63.2987C64.1405 63.4891 64.0473 63.7293 64.0473 64.0194C64.0473 64.3141 64.1451 64.5612 64.3405 64.7606C64.5405 64.9601 64.7883 65.0599 65.0837 65.0599C65.5156 65.0599 65.8224 64.8082 66.0042 64.305Z" fill="white"/>
<path d="M72.884 60.5039C73.8476 60.5039 74.6727 60.8507 75.3591 61.5443C76.05 62.2334 76.3955 63.0607 76.3955 64.0263C76.3955 65.0055 76.0455 65.8395 75.3454 66.5286C74.6499 67.2176 73.809 67.5621 72.8226 67.5621C71.8362 67.5621 70.993 67.2176 70.293 66.5286C69.5929 65.835 69.2429 65.0009 69.2429 64.0263C69.2429 63.0335 69.5929 62.1993 70.293 61.5239C70.993 60.8439 71.8567 60.5039 72.884 60.5039ZM72.8158 63.0131C72.543 63.0131 72.3112 63.1128 72.1203 63.3123C71.9294 63.5072 71.8339 63.7474 71.8339 64.033C71.8339 64.3141 71.9294 64.5544 72.1203 64.7539C72.3158 64.9533 72.5476 65.053 72.8158 65.053C73.0885 65.053 73.3203 64.9533 73.5113 64.7539C73.7067 64.5544 73.8045 64.3141 73.8045 64.033C73.8045 63.7474 73.709 63.5072 73.5181 63.3123C73.3272 63.1128 73.0931 63.0131 72.8158 63.0131Z" fill="white"/>
<path d="M86.7868 67.4261H84.2367V63.7678C84.2367 63.4868 84.2072 63.2918 84.1481 63.183C84.089 63.0742 83.9822 63.0197 83.8277 63.0197C83.5413 63.0197 83.3981 63.2713 83.3981 63.7745V67.426H80.848V63.7677C80.848 63.4867 80.8162 63.2917 80.7525 63.1829C80.6934 63.0741 80.5866 63.0196 80.4321 63.0196C80.1502 63.0196 80.0093 63.2713 80.0093 63.7745V67.4259H77.4592V63.2509C77.4592 62.4893 77.7161 61.8432 78.2297 61.3128C78.7434 60.7779 79.3661 60.5105 80.098 60.5105C80.8525 60.5105 81.5298 60.8278 82.1299 61.4625C82.7981 60.8278 83.4663 60.5105 84.1345 60.5105C84.9845 60.5105 85.6664 60.8187 86.18 61.4353C86.5846 61.9158 86.7869 62.6162 86.7869 63.5364L86.7868 67.4261Z" fill="white"/>
</g>
<defs>
<linearGradient id="paint0_linear_174_4403" x1="61.8196" y1="42.9196" x2="62.2434" y2="72.5778" gradientUnits="userSpaceOnUse">
<stop stop-color="#E30016"/>
<stop offset="0.452222" stop-color="#EE4046"/>
<stop offset="1" stop-color="#F26F73"/>
</linearGradient>
<linearGradient id="paint1_linear_174_4403" x1="61.8354" y1="33.2313" x2="61.8899" y2="9.36263" gradientUnits="userSpaceOnUse">
<stop stop-color="#E30016"/>
<stop offset="0.452222" stop-color="#EE4046"/>
<stop offset="1" stop-color="#F26F73"/>
</linearGradient>
<clipPath id="clip0_174_4403">
<rect width="130.858" height="75" fill="white" transform="translate(0 0.5)"/>
</clipPath>
</defs>
</svg>
